#!OML:ASF Y:\EmotionMaleHayes\Project 1\Capture day 1\Session 1\Male1.ASF
:FULLY-SPECIFIED
:DEGREES
1826
root 4.46874 16.7962 -17.6257 558.934 -82.6217 159.367
lowerback 10.2507 0.72058 -2.97464
upperback 4.46887 0.509924 0.299727
thorax -1.12874 0.144586 1.92869
lowerneck -21.9675 4.23847 5.54599
upperneck 26.2437 5.87367 -6.89786
head 12.7985 2.10551 -2.59381
rclavicle 4.47266e-016 3.97569e-015
rhumerus -38.5409 -10.7357 -77.0001
rradius 25.0915
rwrist 17.1701
rhand -9.10444 -33.1963
rfingers 7.12502
rthumb 16.8459 -62.4856
lclavicle 4.47266e-016 3.97569e-015
lhumerus -30.0481 -18.8006 97.8242
lradius 42.8643
lwrist -4.62992
lhand -16.7948 -26.2319
lfingers 7.12502
lthumb 9.43336 3.53695
rfemur -14.2228 3.06831 13.1077
rtibia 27.9861
rfoot -17.9488 1.47876
rtoes -4.58195
lfemur 10.1863 -8.02709 -30.2015
ltibia 38.6935
lfoot 6.1505 -13.8701
ltoes 29.4385
1827
root 4.34449 16.8147 -17.6843 553.051 -83.0409 165.095
lowerback 10.3772 0.75965 -2.04272
upperback 4.44227 0.652546 0.584223
thorax -1.22816 0.225482 1.68189
lowerneck -21.8237 4.19378 5.57379
upperneck 26.4408 5.78434 -6.81778
head 12.8398 2.07788 -2.5892
rclavicle 2.88238e-015 -5.56597e-015
rhumerus -38.0088 -10.3485 -77.0909
rradius 25.2941
rwrist 16.7314
rhand -9.11846 -33.3825
rfingers 7.12502
rthumb 16.8324 -62.6729
lclavicle 2.88238e-015 -5.56597e-015
lhumerus -30.3331 -18.3598 97.7361
lradius 40.989
lwrist -5.17987
lhand -16.4724 -26.0476
lfingers 7.12502
lthumb 9.74438 3.70696
rfemur -13.0037 3.129 14.2922
rtibia 27.1414
rfoot -18.0357 1.44102
rtoes -4.77199
lfemur 9.38117 -7.18817 -28.4615
ltibia 40.3504
lfoot 9.17311 -13.4524
ltoes 30.5483
1828
root 4.25399 16.8383 -17.7341 550.687 -83.335 167.562
lowerback 10.6243 0.810041 -1.63184
upperback 4.30016 0.763159 0.794216
thorax -1.51334 0.288932 1.65294
lowerneck -21.9159 4.20579 5.79788
upperneck 26.6843 5.77413 -6.97814
head 12.9709 2.06806 -2.6972
rclavicle 5.46658e-015 3.18055e-015
rhumerus -37.3521 -9.5773 -77.3128
rradius 25.7405
rwrist 16.0107
rhand -8.99364 -33.6457
rfingers 7.12502
rthumb 16.9526 -62.9259
lclavicle 5.46658e-015 3.18055e-015
lhumerus -30.3543 -17.8732 97.623
lradius 38.9963
lwrist -5.96836
lhand -16.1375 -25.5655
lfingers 7.12502
lthumb 10.0675 4.17372
rfemur -12.4883 3.13459 14.8277
rtibia 27.7337
rfoot -18.9761 1.82205
rtoes -3.68303
lfemur 7.91478 -6.50194 -27.2824
ltibia 42.3878
lfoot 11.3008 -13.0795
ltoes 31.0027
1829
root 4.14731 16.8595 -17.7827 546.862 -83.5345 171.383
lowerback 10.7764 0.921907 -1.00002
upperback 4.1945 0.97941 0.946225
thorax -1.70738 0.404175 1.42674
lowerneck -21.9178 4.13113 5.91806
upperneck 26.9612 5.60523 -6.89715
head 13.0717 2.01264 -2.72334
rclavicle 1.2921e-014 6.36111e-015
rhumerus -36.7959 -8.75764 -77.642
rradius 26.265
rwrist 14.9231
rhand -8.93982 -33.8432
rfingers 7.12502
rthumb 17.0044 -63.1189
lclavicle 1.2921e-014 6.36111e-015
lhumerus -30.4662 -17.2037 97.3945
lradius 37.1095
lwrist -6.78372
lhand -15.527 -25.0066
lfingers 7.12502
lthumb 10.6564 4.70321
rfemur -11.6685 3.09344 15.5538
rtibia 26.6898
rfoot -18.8882 1.95672
rtoes -1.26794
lfemur 6.71226 -5.6766 -26.0245
ltibia 44.259
lfoot 12.399 -12.7661
ltoes 30.0357
1830
root 4.03001 16.8783 -17.8275 542.22 -83.7633 176.024
lowerback 10.7844 1.00496 -0.190429
upperback 4.11669 1.17686 1.04173
thorax -1.7846 0.509372 1.04522
lowerneck -21.8267 3.94905 5.90116
upperneck 27.1527 5.2724 -6.62855
head 13.0939 1.90081 -2.68007
rclavicle 1.17283e-014 1.27222e-014
rhumerus -36.2528 -8.26823 -77.9089
rradius 26.6315
rwrist 14.0297
rhand -9.13764 -34.0053
rfingers 7.12502
rthumb 16.8139 -63.2973
lclavicle 1.17283e-014 1.27222e-014
lhumerus -30.6997 -16.0371 96.9288
lradius 35.3174
lwrist -8.15399
lhand -14.9934 -24.8359
lfingers 7.12502
lthumb 11.1711 4.84668
rfemur -10.7102 2.81907 16.2888
rtibia 25.6782
rfoot -18.7583 2.34632
rtoes -0.0276188
lfemur 5.61953 -4.81088 -24.7489
ltibia 45.9919
lfoot 12.8987 -12.6214
ltoes 26.9502
1831
root 3.9061 16.8911 -17.8624 539.35 -84.0384 178.862
lowerback 10.5686 0.995212 0.350144
upperback 4.21903 1.21475 1.1762
thorax -1.55252 0.529189 0.879653
lowerneck -22.1037 3.89407 5.86183
upperneck 27.3389 5.16979 -6.51866
head 13.2145 1.86101 -2.65125
rclavicle 1.19271e-015 1.03368e-014
rhumerus -35.3136 -7.74384 -78.0232
rradius 26.7858
rwrist 13.4249
rhand -9.44148 -33.8044
rfingers 7.12502
rthumb 16.5214 -63.121
lclavicle 1.19271e-015 1.03368e-014
lhumerus -30.5797 -14.3408 96.3257
lradius 33.4141
lwrist -10.106
lhand -14.425 -24.7117
lfingers 7.12502
lthumb 11.7193 4.94046
rfemur -9.62871 2.0029 16.6356
rtibia 24.7585
rfoot -18.6743 2.43968
rtoes -1.91855
lfemur 4.56943 -3.95283 -23.9047
ltibia 47.6603
lfoot 12.3361 -12.8668
ltoes 21.0776
1832
root 3.81269 16.9114 -17.915 528.802 -83.8873 189.424
lowerback 10.7316 1.10004 1.39528
upperback 4.22945 1.46052 1.60532
thorax -1.61709 0.652642 0.705039
lowerneck -22.3384 3.7744 5.76348
upperneck 27.4811 5.00255 -6.43096
head 13.3026 1.78506 -2.6323
rclavicle -1.99779e-014 -3.81667e-014
rhumerus -34.3163 -7.19487 -78.0412
rradius 26.9354
rwrist 12.8959
rhand -9.66805 -33.0191
rfingers 7.12502
rthumb 16.3033 -62.3538
lclavicle -1.99779e-014 -3.81667e-014
lhumerus -30.4487 -12.8499 95.7762
lradius 31.5926
lwrist -11.7128
lhand -13.6108 -24.219
lfingers 7.12502
lthumb 12.5043 5.38691
rfemur -8.8497 2.25108 18.2263
rtibia 24.1669
rfoot -18.7574 0.723833
rtoes -6.64034
lfemur 3.144 -2.6674 -21.7708
ltibia 49.6001
lfoot 10.4389 -13.3038
ltoes 13.9437
1833
root 3.70781 16.9349 -17.9707 521.942 -83.8105 196.225
lowerback 11.0406 1.23053 2.1686
upperback 4.07724 1.72931 1.7932
thorax -1.92548 0.787591 0.425426
lowerneck -22.0921 3.61664 6.0092
upperneck 27.4975 4.69439 -6.44119
head 13.2413 1.67926 -2.73606
rclavicle -1.35174e-014 -2.34566e-014
rhumerus -33.6571 -6.84562 -78.1182
rradius 27.129
rwrist 12.3068
rhand -9.68094 -32.5791
rfingers 7.12502
rthumb 16.2909 -61.9147
lclavicle -1.35174e-014 -2.34566e-014
lhumerus -30.7643 -11.5132 95.0711
lradius 29.9351
lwrist -13.3498
lhand -12.9813 -23.9702
lfingers 7.12502
lthumb 13.1113 5.59766
rfemur -7.8269 2.33144 19.2906
rtibia 22.7855
rfoot -11.5541 -2.74016
rtoes 13.3643
lfemur 1.83048 -1.50317 -20.2084
ltibia 51.4406
lfoot 8.19915 -12.8698
ltoes 10.0249
1834
root 3.59741 16.9568 -18.0202 516.595 -83.8614 201.52
lowerback 10.7504 1.29291 2.78503
upperback 4.3521 1.8442 1.92489
thorax -1.46302 0.848142 0.212599
lowerneck -22.0912 3.49891 6.28853
upperneck 27.1632 4.45063 -6.54124
head 13.0938 1.59681 -2.85743
rclavicle -7.7526e-015 5.96354e-015
rhumerus -32.3504 -6.7277 -78.2189
rradius 27.3387
rwrist 11.8537
rhand -9.38657 -32.8243
rfingers 7.12502
rthumb 16.5743 -62.1365
lclavicle -7.7526e-015 5.96354e-015
lhumerus -30.3161 -9.68329 93.987
lradius 28.1516
lwrist -15.6767
lhand -12.6498 -24.2069
lfingers 7.12502
lthumb 13.4308 5.34009
rfemur -6.68988 2.10763 20.039
rtibia 21.8634
rfoot -18.8369 0.0724136
rtoes -11.4004
lfemur 0.47966 -0.492552 -19.0582
ltibia 53.1711
lfoot 6.55492 -11.7531
ltoes 10.3784
1835
root 3.48969 16.9767 -18.0613 512.935 -83.6961 205.128
lowerback 10.9182 1.37724 3.34129
upperback 4.32255 2.01835 2.04091
thorax -1.56508 0.935174 -0.00334541
lowerneck -22.3361 3.46224 5.96501
upperneck 27.2781 4.42346 -6.25407
head 13.1721 1.58687 -2.69536
rclavicle 4.47266e-015 1.70955e-014
rhumerus -31.579 -6.46543 -78.2396
rradius 27.705
rwrist 11.5719
rhand -9.1487 -33.0798
rfingers 7.12502
rthumb 16.8033 -62.3728
lclavicle 4.47266e-015 1.70955e-014
lhumerus -30.3824 -7.55949 92.8613
lradius 26.4619
lwrist -18.1271
lhand -12.5311 -24.572
lfingers 7.12502
lthumb 13.5452 4.96744
rfemur -5.72321 1.97497 20.6373
rtibia 20.8502
rfoot -19.0071 1.25118
rtoes -8.78863
lfemur -0.891065 0.680685 -18.1167
ltibia 54.7102
lfoot 4.8782 -10.469
ltoes 10.2829
1836
root 3.37606 16.9972 -18.0929 513.183 -83.7106 204.802
lowerback 10.9486 1.49707 3.62532
upperback 4.34117 2.20391 1.9467
thorax -1.54205 1.03097 -0.28191
lowerneck -21.9983 3.27136 6.4015
upperneck 26.8262 4.10935 -6.62386
head 12.9133 1.45577 -2.96026
rclavicle 3.67752e-015 -5.96354e-015
rhumerus -30.7111 -6.14451 -78.3721
rradius 27.9624
rwrist 11.1791
rhand -9.29269 -33.04
rfingers 7.12502
rthumb 16.6647 -62.3447
lclavicle 3.67752e-015 -5.96354e-015
lhumerus -30.5797 -5.67183 91.6093
lradius 24.9545
lwrist -20.2648
lhand -12.6461 -24.9343
lfingers 7.12502
lthumb 13.4343 4.61252
rfemur -4.8128 1.43224 20.5722
rtibia 20.4144
rfoot -19.1751 1.1802
rtoes -10.9533
lfemur -2.13822 1.77887 -17.8911
ltibia 55.9116
lfoot 2.99541 -8.9857
ltoes 9.94316
1837
root 3.26162 17.0161 -18.1268 514.018 -83.9528 203.872
lowerback 10.8618 1.55476 3.69032
upperback 4.40725 2.27739 1.8455
thorax -1.41668 1.07157 -0.427747
lowerneck -22.4442 3.27617 5.95773
upperneck 27.3522 4.01226 -5.79353
head 13.1801 1.47151 -2.58689
rclavicle 2.48481e-015 2.70347e-014
rhumerus -29.7085 -5.49722 -78.5635
rradius 28.1683
rwrist 10.5809
rhand -9.3589 -33.0802
rfingers 7.12502
rthumb 16.6009 -62.3901
lclavicle 2.48481e-015 2.70347e-014
lhumerus -30.5457 -3.69722 90.2489
lradius 23.4295
lwrist -22.3499
lhand -12.6786 -24.8844
lfingers 7.12502
lthumb 13.403 4.66441
rfemur -3.72173 1.03265 20.3258
rtibia 19.2563
rfoot -18.9002 1.17246
rtoes -10.4675
lfemur -3.41105 2.7015 -17.926
ltibia 56.9843
lfoot 1.27027 -7.37698
ltoes 9.30015
1838
root 3.15883 17.0377 -18.1731 511.54 -83.796 206.259
lowerback 10.9634 1.63055 3.9495
upperback 4.44023 2.40478 1.99197
thorax -1.42761 1.13349 -0.437921
lowerneck -22.4827 3.21328 5.71494
upperneck 27.5136 3.92065 -5.50349
head 13.2345 1.44372 -2.45108
rclavicle -2.16675e-014 -1.55052e-014
rhumerus -28.5898 -4.53657 -78.6843
rradius 28.2743
rwrist 10.1922
rhand -9.32317 -33.318
rfingers 7.12502
rthumb 16.6353 -62.6251
lclavicle -2.16675e-014 -1.55052e-014
lhumerus -30.2906 -1.43776 88.8786
lradius 21.8678
lwrist -24.4863
lhand -12.3692 -24.26
lfingers 7.12502
lthumb 13.7012 5.26898
rfemur -2.68028 1.2974 20.8955
rtibia 18.3002
rfoot -19.0096 0.906055
rtoes -11.1821
lfemur -4.81225 3.90515 -17.2076
ltibia 58.1034
lfoot -0.175354 -5.80857
ltoes 7.13639
1839
root 3.06074 17.0652 -18.2224 507.683 -83.3214 210.004
lowerback 11.2967 1.73231 4.4871
upperback 4.4049 2.61166 2.17696
thorax -1.6202 1.23174 -0.581844
lowerneck -22.6479 3.18545 5.57446
upperneck 27.7516 3.88729 -5.37152
head 13.3585 1.42783 -2.38608
rclavicle 1.36167e-014 -1.74931e-014
rhumerus -27.5823 -3.77623 -78.7789
rradius 28.4725
rwrist 10.1094
rhand -9.43833 -33.4351
rfingers 7.12502
rthumb 16.5245 -62.7515
lclavicle 1.36167e-014 -1.74931e-014
lhumerus -30.4076 1.01195 87.3438
lradius 20.5949
lwrist -26.8588
lhand -12.1849 -23.8784
lfingers 7.12502
lthumb 13.8788 5.63847
rfemur -1.74221 1.87889 21.9079
rtibia 17.8858
rfoot -19.3969 0.628292
rtoes -11.5294
lfemur -6.11768 5.22871 -16.0628
ltibia 59.0404
lfoot -1.37387 -4.62839
ltoes 5.61537
